<svg width="131" height="52" viewBox="0 0 131 52" fill="none" xmlns="http://www.w3.org/2000/svg">
<path d="M0 15C0 6.71573 6.71573 0 15 0H127C129.209 0 131 1.79086 131 4V22C131 38.5685 117.569 52 101 52H4C1.79086 52 0 50.2091 0 48V15Z" fill="#FFDCB9"/>
<path d="M106.152 35.6881C105.265 35.6881 104.571 35.4365 104.067 34.9334C103.564 34.4302 103.313 33.7354 103.313 32.8489V28.6082L97.4547 21.7798C97.2391 21.5163 97.0474 21.1928 96.8797 20.8095C96.7359 20.4261 96.6641 20.0428 96.6641 19.6594V17.8625C96.6641 17.5271 96.8078 17.3594 97.0953 17.3594H98.7844C99.7428 17.3594 100.45 17.6229 100.905 18.15L104.247 22.1033C104.439 22.3189 104.69 22.4986 105.002 22.6424C105.313 22.7861 105.613 22.858 105.9 22.858C106.188 22.858 106.487 22.7981 106.799 22.6783C107.11 22.5585 107.374 22.3668 107.589 22.1033L110.824 18.2578C111.351 17.6589 112.034 17.3594 112.872 17.3594H114.562C114.849 17.3594 114.993 17.5271 114.993 17.8625V19.6594C114.993 20.3543 114.717 21.0371 114.166 21.708L108.344 28.4644V35.1849C108.344 35.5204 108.2 35.6881 107.913 35.6881H106.152Z" fill="#08A3B0"/>
<path d="M86.7048 35.6881C84.7641 35.6881 83.0151 35.2329 81.4578 34.3224C79.9244 33.412 78.7145 32.1661 77.828 30.5848C76.9654 28.9795 76.5342 27.2066 76.5342 25.2659V17.8625C76.5342 17.5271 76.6779 17.3594 76.9654 17.3594H78.7264C79.6129 17.3594 80.3077 17.6109 80.8109 18.1141C81.314 18.6172 81.5656 19.312 81.5656 20.1985V25.1581C81.5656 26.1643 81.7812 27.1107 82.2125 27.9972C82.6437 28.8837 83.2427 29.6025 84.0094 30.1535C84.8001 30.6806 85.7105 30.9442 86.7407 30.9442H92.0237C92.9102 30.9442 93.605 31.1957 94.1082 31.6989C94.6113 32.202 94.8629 32.8968 94.8629 33.7833V35.2568C94.8629 35.5443 94.6952 35.6881 94.3597 35.6881H86.7048Z" fill="#08A3B0"/>
<path d="M66.5744 35.6881C64.6338 35.6881 62.8847 35.2329 61.3274 34.3224C59.794 33.412 58.5841 32.1661 57.6976 30.5848C56.8351 28.9795 56.4038 27.2066 56.4038 25.2659V17.8625C56.4038 17.5271 56.5476 17.3594 56.8351 17.3594H58.5961C59.4826 17.3594 60.1774 17.6109 60.6805 18.1141C61.1836 18.6172 61.4352 19.312 61.4352 20.1985V25.1581C61.4352 26.1643 61.6508 27.1107 62.0821 27.9972C62.5134 28.8837 63.1124 29.6025 63.879 30.1535C64.6697 30.6806 65.5801 30.9442 66.6104 30.9442H71.8934C72.7798 30.9442 73.4747 31.1957 73.9778 31.6989C74.4809 32.202 74.7325 32.8968 74.7325 33.7833V35.2568C74.7325 35.5443 74.5648 35.6881 74.2294 35.6881H66.5744Z" fill="#08A3B0"/>
<path d="M39.1131 35.6881C38.2266 35.6881 37.5318 35.4365 37.0286 34.9334C36.5255 34.4302 36.2739 33.7354 36.2739 32.8489V17.8625C36.2739 17.5271 36.4177 17.3594 36.7052 17.3594H43.246C45.4742 17.3594 47.4389 17.9104 49.14 19.0126C50.865 20.0907 52.2067 21.5762 53.1651 23.4689C54.1234 25.3617 54.6026 27.4701 54.6026 29.7941V35.1849C54.6026 35.5204 54.4589 35.6881 54.1714 35.6881H52.4104C51.5239 35.6881 50.8291 35.4365 50.3259 34.9334C49.8228 34.4302 49.5712 33.7354 49.5712 32.8489V31.4114H41.3053V35.1849C41.3053 35.5204 41.1616 35.6881 40.8741 35.6881H39.1131ZM49.0681 26.7034C48.6129 25.2659 47.8581 24.1398 46.8039 23.3252C45.7737 22.5106 44.5758 22.1033 43.2101 22.1033C42.6111 22.1033 42.1439 22.283 41.8085 22.6424C41.473 22.9778 41.3053 23.3971 41.3053 23.9002V26.7034H49.0681Z" fill="#08A3B0"/>
<path d="M26.6019 35.6881C24.5414 35.6881 22.5289 35.4365 20.5642 34.9334C18.6235 34.4063 17.174 33.6635 16.2156 32.7052C16.0719 32.5614 16 32.4297 16 32.3099C16 32.214 16.0359 32.1302 16.1078 32.0583L17.9766 30.1176C18.4558 29.6384 18.911 29.3988 19.3423 29.3988C19.6298 29.3988 20.0371 29.5426 20.5642 29.8301C21.3549 30.2614 22.1814 30.5728 23.044 30.7645C23.9305 30.9562 24.9487 31.052 26.0988 31.052C27.7999 31.052 28.6504 30.7046 28.6504 30.0098C28.6504 29.5785 28.3389 29.2671 27.716 29.0754C27.117 28.8837 26.0628 28.692 24.5534 28.5004C23.2836 28.3087 22.2174 28.0811 21.3549 27.8175C19.8694 27.4342 18.6834 26.8232 17.7969 25.9847C16.9344 25.1221 16.5031 24.044 16.5031 22.7502C16.5031 20.8335 17.3058 19.3959 18.911 18.4375C20.5402 17.4792 22.5768 17 25.0206 17C26.7936 17 28.4947 17.2516 30.1239 17.7547C31.7771 18.2579 33.1427 19.0006 34.2209 19.9829C34.3646 20.1267 34.4365 20.2584 34.4365 20.3782C34.4365 20.4741 34.4006 20.5579 34.3287 20.6298L32.4958 22.5345C32.0167 23.0137 31.5614 23.2533 31.1302 23.2533C30.8187 23.2533 30.5432 23.1934 30.3036 23.0736C30.0879 22.9299 29.9562 22.846 29.9083 22.8221C28.4707 22.0075 26.7696 21.6001 24.805 21.6001C22.9841 21.6001 22.0736 21.9236 22.0736 22.5705C22.0736 23.0018 22.6367 23.3492 23.7627 23.6127C24.6972 23.8283 26.2305 24.0919 28.3629 24.4034C30.5671 24.7388 32.1364 25.4096 33.0709 26.4159C34.0053 27.4222 34.4725 29.0035 34.4725 31.1598V35.3646C34.4725 35.5803 34.3766 35.6881 34.185 35.6881H26.6019Z" fill="#08A3B0"/>
</svg>
